<svg width="18" height="18" viewBox="0 0 18 18" fill="none" xmlns="http://www.w3.org/2000/svg">
<g clip-path="url(#clip0_3972_3907)">
<path d="M5.87166 10.8752C4.46119 10.9659 3.18115 11.5031 2.45482 13.417C2.37221 13.6354 2.17357 13.7679 1.94189 13.7679C1.55131 13.7679 0.343691 12.7951 -0.000488281 12.5603C-0.000136719 15.4554 1.33334 18 4.49986 18C7.16682 18 8.99986 16.4612 8.99986 13.7746C8.99986 13.6652 8.97701 13.5608 8.96576 13.4536L5.87166 10.8752ZM16.0976 0C15.5646 0 15.065 0.235898 14.6839 0.57832C7.49764 6.99785 6.74986 7.14867 6.74986 9.03832C6.74986 9.51996 6.86412 9.9791 7.05678 10.3989L9.30045 12.2685C9.55393 12.3318 9.81514 12.375 10.0876 12.375C12.2712 12.375 13.5368 10.7764 17.5112 3.35883C17.7706 2.85434 17.9999 2.30941 17.9999 1.74199C17.9999 0.725625 17.0858 0 16.0976 0Z" fill="white"/>
</g>
<defs>
<clipPath id="clip0_3972_3907">
<rect width="18" height="18" fill="white"/>
</clipPath>
</defs>
</svg>
